<svg
   version="1.1"
   id="svg1"
   viewBox="0 0 659 662"
   xmlns="http://www.w3.org/2000/svg">
  <defs id="defs1" />
  <g
     id="g1">
    <path
       style="fill:#000000;stroke:none;stroke-width:1.00828"
       d="M 0.12093499,0.23245251 0.25488131,11.011891 9.1747606,12.696131 37.342216,16.401577 100.719,24.48614 l 53.31697,6.400257 46.2751,5.726585 72.43061,9.095133 177.05257,22.232547 144.8612,18.190266 48.28707,6.063422 16.09568,2.02114 V 0.23245251 H 0.12093499 m 0,23.24311649 0.0109652,11.790006 11.05486181,4.379118 25.149514,9.43197 114.681794,43.286135 86.51433,32.506632 249.48313,93.98307 112.66982,42.44395 40.23922,15.15856 19.11363,6.73713 v -70.73992 -17.1797 l 0.0563,-6.69228 -16.15212,-3.75029 -38.22727,-9.60041 L 469.91376,141.37546 156.04787,62.550974 53.437846,36.781431 0.12087463,23.475569 m 0,24.253687 0.0109652,11.913585 11.05486117,6.613517 24.143534,15.158554 113.675805,71.413658 176.0466,110.48902 177.05259,111.16273 104.62199,65.68704 32.19138,20.21141 20.1196,11.79001 v -70.73992 -17.1797 l 0.0563,-6.73713 -18.16406,-8.58984 L 600.69125,348.71078 469.91376,283.02371 147.99995,121.33243 47.401902,70.803924 17.222485,55.645369 0.12081427,47.729256 m 0,23.243117 V 662.156 H 659.0382 v -68.71879 -18.19026 l -0.011,-8.20813 L 643.9484,555.70928 611.75702,531.45559 493.05132,442.02013 161.07774,191.90394 54.443786,111.56364 18.228485,84.278236 Z"
       id="path2" />
  </g>
</svg>
