<svg
   version="1.1"
   id="svg1"
   viewBox="0 0 2718 670"
   xmlns="http://www.w3.org/2000/svg">
  <defs id="defs1" />
  <g
     id="g1">
    <g
       id="g9"
       transform="matrix(1,0,0,0.99908872,0.04545895,0.64348033)">
      <path
         style="fill:#fefefe"
         d="m 608,669.39366 c -2.475,-0.22 -10.25142,-1.10168 -17.28093,-1.9593 -7.02951,-0.85762 -18.05451,-2.85282 -24.5,-4.43378 -6.44549,-1.58096 -14.77065,-4.02928 -18.50035,-5.44071 -3.72971,-1.41143 -10.02971,-4.19498 -14,-6.18568 -3.9703,-1.99069 -10.36584,-5.70176 -14.21233,-8.24682 -3.84649,-2.54505 -10.88237,-8.53025 -15.63531,-13.30043 -4.75293,-4.77018 -11.1682,-12.47015 -14.25614,-17.11104 -3.08794,-4.6409 -7.38464,-12.21549 -9.54822,-16.83244 -2.16357,-4.61695 -5.11178,-12.44198 -6.55157,-17.38896 -1.43979,-4.94697 -3.26705,-13.2695 -4.06058,-18.4945 -0.83953,-5.52787 -1.4322,-16.60801 -1.41748,-26.5 0.0139,-9.35 0.65475,-22.175 1.42409,-28.5 0.76934,-6.325 2.11475,-14.83681 2.98979,-18.91513 0.87505,-4.07831 2.91883,-11.37844 4.54174,-16.22251 1.62291,-4.84406 4.32327,-11.52634 6.0008,-14.8495 1.67753,-3.32317 4.59939,-8.46412 6.49301,-11.42434 1.89363,-2.96022 6.22247,-8.83734 9.61964,-13.06027 3.39718,-4.22293 9.35459,-10.4132 13.2387,-13.75615 3.88411,-3.34295 10.45797,-8.30418 14.60858,-11.02495 4.15061,-2.72077 12.52626,-7.36705 18.61255,-10.32507 6.0863,-2.95801 17.1397,-7.40774 24.56312,-9.88829 7.42343,-2.48055 18.56485,-5.65406 24.75872,-7.05225 6.19388,-1.39818 22.14047,-4.52623 35.43688,-6.95123 13.29641,-2.42499 36.23994,-6.22936 50.98562,-8.45416 14.74568,-2.22479 32.04996,-5.22023 38.45397,-6.65654 6.404,-1.4363 15.39998,-3.88908 19.99106,-5.45063 4.59108,-1.56154 10.40537,-4.04521 12.92064,-5.51926 2.51527,-1.47404 6.23251,-4.17915 8.26053,-6.01135 2.02803,-1.83219 4.88738,-5.53618 6.35413,-8.23108 1.46675,-2.69489 3.39788,-8.00649 4.29141,-11.80355 1.0942,-4.64979 1.45917,-9.35236 1.11788,-14.40374 -0.2787,-4.125 -1.48835,-10.10306 -2.68812,-13.28458 -1.41273,-3.74624 -4.12235,-7.88103 -7.68958,-11.73407 -3.0295,-3.27222 -8.16161,-7.56136 -11.4047,-9.53144 -3.24309,-1.97007 -9.4293,-4.87125 -13.74715,-6.44707 -4.31784,-1.57581 -11.63507,-3.59423 -16.26051,-4.48536 -4.62544,-0.89113 -14.70989,-1.88453 -22.40989,-2.20754 -8.45035,-0.3545 -18.04664,-0.11525 -24.20838,0.60355 -5.61462,0.65498 -13.48962,2.09918 -17.5,3.20934 -4.01039,1.11017 -9.99162,3.31835 -13.29162,4.90708 -3.3,1.58872 -8.025,4.56658 -10.5,6.61746 -2.475,2.05088 -6.64165,6.23171 -9.25922,9.29075 -2.61757,3.05903 -7.01584,10.07613 -9.77392,15.59354 -3.18623,6.37389 -5.98177,13.93981 -7.66694,20.75 L 603.64768,329 h -59.97581 -59.97582 l 0.59815,-12.25 c 0.32898,-6.7375 1.7476,-18.42499 3.15249,-25.9722 1.40489,-7.5472 4.31093,-19.07159 6.45787,-25.60975 2.14694,-6.53815 5.72621,-15.54025 7.95394,-20.00464 2.22773,-4.4644 5.57229,-10.49001 7.43235,-13.39025 1.86007,-2.90024 6.19429,-8.7634 9.63161,-13.02925 3.43732,-4.26585 9.68259,-10.75011 13.87838,-14.40946 4.1958,-3.65935 11.69457,-9.32777 16.66394,-12.59649 4.96937,-3.26872 13.64853,-8.17231 19.28702,-10.89688 5.63849,-2.72456 16.34359,-6.95836 23.78911,-9.40842 7.44552,-2.45007 20.15721,-5.78455 28.2482,-7.40996 8.09099,-1.6254 21.45843,-3.65835 29.70543,-4.51766 8.24699,-0.8593 23.99699,-1.83252 35,-2.1627 11.67248,-0.35028 27.50309,-0.11119 38.00546,0.57399 9.9,0.64588 22.95,1.85696 29,2.69129 6.05,0.83434 15.25114,2.43266 20.44697,3.55183 5.19584,1.11917 13.8248,3.3354 19.17548,4.92497 5.35068,1.58956 14.41911,4.89359 20.15207,7.34229 5.73297,2.4487 14.31745,6.69282 19.07663,9.43137 4.75918,2.73856 12.43046,7.92881 17.0473,11.5339 4.61683,3.60509 11.17153,9.6042 14.56599,13.33136 3.39447,3.72716 9.05437,11.07681 12.57756,16.33254 3.52319,5.25574 8.22958,13.44772 10.45864,18.20441 2.22906,4.75669 5.62267,13.4408 7.54135,19.29802 1.91868,5.85722 4.62254,16.25025 6.00857,23.09561 1.38603,6.84536 3.17435,18.6111 3.97404,26.14609 1.21018,11.40271 1.45578,41.32737 1.46469,178.4578 L 905,657.01561 844.76495,656.75781 784.5299,656.5 l -1.70416,-6.31498 c -0.93729,-3.47324 -2.37838,-10.44824 -3.20243,-15.5 -0.82405,-5.05176 -1.79473,-11.5555 -2.15706,-14.45274 l -0.6588,-5.26773 -8.43492,7.98435 c -4.6392,4.39139 -12.81376,10.89947 -18.16567,14.46238 -5.35192,3.56292 -14.90038,8.95804 -21.21881,11.98917 -6.31843,3.03113 -16.33742,7.12858 -22.26442,9.10545 -5.92701,1.97687 -14.90661,4.49574 -19.95468,5.59749 -5.04806,1.10176 -13.69869,2.6716 -19.22362,3.48854 -5.67139,0.8386 -19.84228,1.64131 -32.54533,1.84353 -12.375,0.19701 -24.525,0.17819 -27,-0.0418 z m 70.08386,-93.85016 c 5.27112,-0.7946 13.82112,-2.80223 19,-4.46142 5.17888,-1.65918 13.40672,-5.05316 18.28409,-7.54217 4.87737,-2.48901 11.85237,-6.74023 15.5,-9.44716 3.64763,-2.70693 10.04095,-8.44768 14.20739,-12.75722 4.16643,-4.30954 9.42854,-10.58595 11.69357,-13.94758 2.26504,-3.36162 5.89886,-9.66162 8.07516,-14 2.1763,-4.33837 4.85532,-10.82273 5.95338,-14.40969 1.09806,-3.58695 2.46343,-9.88695 3.03415,-14 0.57072,-4.11304 1.31834,-20.43283 1.66138,-36.26619 l 0.6237,-28.78792 -4.70901,3.59447 c -2.58996,1.97696 -6.32871,4.41378 -8.30834,5.41515 -1.97963,1.00138 -6.89773,3.00421 -10.92911,4.45074 -4.03138,1.44653 -13.48138,4.16914 -21,6.05025 -7.51862,1.8811 -22.67022,5.26543 -33.67022,7.52072 -11,2.25529 -24.14841,5.22318 -29.21869,6.59531 -5.07028,1.37213 -13.81563,4.09488 -19.43411,6.05054 -5.61848,1.95567 -12.94507,4.92347 -16.28131,6.59512 -3.33624,1.67165 -8.83167,5.0007 -12.21206,7.39789 -3.38039,2.39719 -7.98164,6.66379 -10.225,9.48132 -2.24336,2.81754 -5.20356,7.44064 -6.57822,10.27357 -1.37467,2.83292 -3.2788,8.07577 -4.2314,11.65077 -1.18077,4.43131 -1.73555,10.31912 -1.74316,18.5 -0.008,8.71503 0.4832,13.64248 1.79473,18 0.99323,3.3 2.9653,8.14237 4.38237,10.76082 1.41707,2.61845 4.90202,6.96022 7.74434,9.64836 2.84232,2.68815 7.38065,5.99606 10.08518,7.35091 2.70453,1.35484 7.18341,3.20472 9.95306,4.11083 2.76965,0.90611 7.71965,2.03846 11,2.51633 3.28035,0.47788 10.46427,0.92109 15.96427,0.98491 5.5,0.0638 14.31274,-0.53407 19.58386,-1.32866 z M 1494.5,669.31893 c -2.75,-0.17631 -10.85,-1.02827 -18,-1.89324 -7.15,-0.86496 -18.4,-2.70377 -25,-4.08622 -6.6,-1.38246 -17.85,-4.44368 -25,-6.8027 -7.15,-2.35903 -17.7081,-6.36807 -23.4625,-8.90898 -5.7544,-2.5409 -15.2044,-7.33883 -21,-10.66206 -5.7956,-3.32323 -14.4528,-8.84352 -19.2381,-12.26731 -4.7853,-3.42379 -12.7119,-9.69181 -17.6145,-13.92893 -4.9026,-4.23712 -12.6463,-11.96686 -17.2083,-17.17721 -4.562,-5.21036 -11.1315,-13.43763 -14.599,-18.28283 -3.4675,-4.8452 -8.9679,-13.53445 -12.2232,-19.30945 -3.2553,-5.775 -7.744,-14.60155 -9.975,-19.61455 -2.2309,-5.01301 -5.6829,-13.7879 -7.671,-19.49975 -1.9882,-5.71186 -4.9357,-15.33532 -6.55,-21.38545 -1.6143,-6.05014 -4.0321,-17.52525 -5.3728,-25.50025 -1.3407,-7.975 -2.9866,-21.64685 -3.6576,-30.38189 -0.7481,-9.73872 -0.9918,-23.66364 -0.6301,-36 0.3243,-11.06496 1.3071,-25.74311 2.1839,-32.61811 0.8768,-6.875 2.4932,-17 3.5919,-22.5 1.0987,-5.5 3.5556,-15.48859 5.4598,-22.19686 1.9042,-6.70828 5.3228,-17.01392 7.5969,-22.90144 2.2741,-5.88751 6.9074,-16.14893 10.2962,-22.80314 3.3888,-6.65421 8.6484,-15.92356 11.6881,-20.59856 3.0397,-4.675 9.1596,-13.01369 13.6,-18.53041 4.4403,-5.51673 12.3757,-14.1436 17.6343,-19.17083 5.2586,-5.02722 13.0887,-11.82578 17.4003,-15.10789 4.3115,-3.28212 11.6443,-8.43968 16.2949,-11.46124 4.6507,-3.02157 13.5168,-8.02483 19.7024,-11.11836 6.1857,-3.09354 15.7901,-7.43471 21.3433,-9.64707 5.5531,-2.21235 14.8458,-5.35603 20.6505,-6.98596 5.8047,-1.62992 16.2252,-4.05222 23.1568,-5.38287 6.9315,-1.33066 17.5528,-3.01198 23.6028,-3.73625 6.5896,-0.78888 21.224,-1.29145 36.5,-1.25349 17.8497,0.0444 29.3502,0.56936 38.3336,1.74988 7.0584,0.92758 18.1307,2.80494 24.6051,4.17192 6.4744,1.36699 16.8818,4.10359 23.1276,6.08135 6.2458,1.97776 16.5104,5.80756 22.8101,8.51068 6.2997,2.70311 16.2171,7.62547 22.0388,10.93857 5.8216,3.3131 14.6821,8.94559 19.69,12.51665 5.0079,3.57106 13.3214,10.20157 18.4746,14.73446 5.1532,4.5329 13.1234,12.50521 17.7115,17.71625 4.5881,5.21103 11.4008,13.97461 15.1393,19.47461 3.7384,5.5 9.1184,14.12932 11.9554,19.17626 2.8371,5.04695 7.3486,14.28094 10.0257,20.51998 2.6771,6.23905 6.6846,17.02768 8.9055,23.97473 2.2209,6.94705 5.1677,17.73805 6.5483,23.98001 1.3806,6.24196 3.211,16.29902 4.0674,22.34902 0.8564,6.05 2.0083,17.075 2.5597,24.5 0.5514,7.425 1.0025,18.9 1.0025,25.5 0,6.6 -0.4511,18.075 -1.0025,25.5 -0.5514,7.425 -1.7068,18.45 -2.5676,24.5 -0.8608,6.05 -2.6645,15.95 -4.0083,22 -1.3439,6.05 -3.8291,15.5 -5.5227,21 -1.6937,5.5 -5.0974,14.94355 -7.5639,20.98568 -2.4664,6.04212 -6.6839,15.26712 -9.3722,20.5 -2.6883,5.23287 -7.9735,14.23932 -11.7448,20.01432 -3.7713,5.775 -9.6737,13.98769 -13.1165,18.25043 -3.4428,4.26274 -10.2727,11.76356 -15.1777,16.66849 -4.9049,4.90493 -12.4057,11.73466 -16.6685,15.17716 -4.2627,3.44251 -11.8004,8.91457 -16.7504,12.16013 -4.95,3.24557 -16.2,9.43525 -25,13.75486 -8.8,4.31961 -20.725,9.44041 -26.5,11.37957 -5.775,1.93915 -15,4.6581 -20.5,6.0421 -5.5,1.38399 -15.175,3.39666 -21.5,4.47258 -6.325,1.07593 -17.5525,2.43738 -24.9499,3.02545 -7.3974,0.58808 -20.2224,0.98812 -28.5,0.88898 -8.2776,-0.0991 -17.3001,-0.3245 -20.0501,-0.50082 z M 1540,559.52861 c 5.225,-0.80278 12.875,-2.40505 17,-3.56059 4.125,-1.15555 11.55,-4.08158 16.5,-6.50231 4.95,-2.42072 12.6,-7.28899 17,-10.81836 4.4,-3.52938 10.4043,-9.3904 13.3429,-13.02449 2.9386,-3.63409 7.3272,-10.08949 9.7525,-14.34534 2.4253,-4.25585 5.783,-11.03687 7.4615,-15.06893 1.6786,-4.03206 4.3642,-12.36597 5.9682,-18.5198 1.6039,-6.15384 3.6472,-15.68879 4.5406,-21.18879 1.0446,-6.43043 1.8114,-19.19607 2.1482,-35.76238 0.335,-16.48261 0.1,-29.80953 -0.6528,-36.99807 -0.647,-6.17963 -2.0883,-15.96156 -3.2029,-21.73762 -1.1146,-5.77606 -3.3868,-14.77693 -5.0495,-20.00193 -1.6627,-5.225 -4.9325,-13.363 -7.2662,-18.08445 -2.3337,-4.72144 -6.1956,-11.45954 -8.5819,-14.97356 -2.3863,-3.51401 -7.3854,-9.43579 -11.1092,-13.15951 -3.7237,-3.72371 -10.0269,-8.87704 -14.0071,-11.45183 -3.9802,-2.5748 -10.861,-6.21869 -15.2905,-8.09755 -4.4296,-1.87885 -12.7788,-4.51751 -18.5538,-5.86369 -7.4321,-1.73246 -14.8827,-2.62262 -25.5,-3.04659 -9.2017,-0.36745 -18.9235,-0.14152 -25.1501,0.5845 -5.5826,0.65092 -14.2705,2.28616 -19.3065,3.63387 -5.0359,1.34771 -12.4482,3.97137 -16.4717,5.83034 -4.0235,1.85897 -9.9606,5.17724 -13.1936,7.37393 -3.233,2.19668 -8.3232,6.1901 -11.3117,8.87425 -2.9884,2.68416 -8.0769,8.44175 -11.3076,12.79465 -3.2308,4.3529 -7.856,12.0029 -10.2783,17 -2.4223,4.9971 -5.7508,13.22588 -7.3967,18.28617 -1.6459,5.0603 -3.8781,13.8353 -4.9604,19.5 -1.0824,5.66471 -2.5285,14.79947 -3.2136,20.29947 -0.6851,5.5 -1.2315,20.125 -1.2143,32.5 0.021,14.97256 0.5896,26.84919 1.6998,35.5 0.9177,7.15 2.5638,16.825 3.658,21.5 1.0942,4.675 3.1768,12.1 4.628,16.5 1.4512,4.4 3.9188,10.85943 5.4836,14.35428 1.5648,3.49486 5.376,10.23707 8.4693,14.9827 3.0934,4.74563 8.6036,11.59203 12.2451,15.21422 3.6414,3.62219 9.4908,8.52339 12.9988,10.89156 3.508,2.36816 9.6302,5.80831 13.605,7.64477 3.9747,1.83646 10.7796,4.32012 15.1219,5.51925 4.3422,1.19914 11.495,2.74614 15.895,3.43779 4.4,0.69165 14.3,1.29942 22,1.35059 7.7799,0.0517 18.2208,-0.55544 23.5,-1.36655 z M 0,328.5 V 0 h 234 234 v 58 58 H 303 138 v 74 74 H 282.5 427 v 58 58 H 282.5 138 V 518.5 657 H 69 0 Z m 985,85 V 170 h 61 61 v 28.07135 28.07135 l 7.6781,-10.32135 c 4.223,-5.67674 11.1127,-13.69635 15.3105,-17.82135 4.1978,-4.125 11.2627,-10.09266 15.6999,-13.26146 4.4371,-3.1688 12.2849,-7.98141 17.4395,-10.69468 5.1546,-2.71327 14.097,-6.51388 19.872,-8.4458 5.775,-1.93192 14.55,-4.20493 19.5,-5.05114 4.95,-0.8462 15.3,-1.98648 23,-2.53395 7.7,-0.54748 20.4125,-0.99936 28.25,-1.00419 L 1268,157 v 66.2838 66.2838 l -9.25,-1.2173 c -5.0875,-0.66952 -16.6868,-1.24723 -25.7762,-1.2838 -9.0895,-0.0366 -20.3395,0.39743 -25,0.96445 -4.6606,0.56702 -12.2988,1.96737 -16.9738,3.11188 -4.675,1.14452 -12.1573,3.54806 -16.6273,5.3412 -4.4699,1.79314 -11.4067,5.38174 -15.4149,7.97467 -4.0083,2.59292 -9.9663,7.26296 -13.24,10.37785 -3.2738,3.1149 -7.9068,8.39568 -10.2956,11.73507 -2.3887,3.3394 -6.1457,9.8644 -8.3487,14.5 -2.2031,4.63561 -5.1462,12.41745 -6.5403,17.29297 -1.3941,4.87553 -3.2094,14.01107 -4.034,20.30122 -1.2676,9.67024 -1.4992,32.04778 -1.4992,144.88541 V 657 h -65 -65 z m 819,-85 V 0 h 65 65 V 328.5 657 h -65 -65 z M 633.41093,108.51613 c -3.34899,-0.72868 -8.93384,-2.7609 -12.41077,-4.51605 -3.47693,-1.75515 -8.67883,-5.548318 -11.55978,-8.429262 -2.88094,-2.880944 -6.45051,-7.630704 -7.93238,-10.555022 -1.48186,-2.924318 -3.32562,-7.386684 -4.09725,-9.916369 -0.77163,-2.529685 -1.68804,-8.20714 -2.03648,-12.616567 -0.38191,-4.833024 -0.14246,-10.92854 0.60292,-15.347619 0.769,-4.559175 2.71653,-10.287608 5.15149,-15.152497 2.72535,-5.445086 5.5798,-9.343511 9.39342,-12.828952 3.01312,-2.753813 7.84078,-6.151274 10.72814,-7.549913 2.88737,-1.398639 7.9318,-3.2316823 11.20986,-4.0734295 C 635.73815,6.6887023 642.52867,6 647.55014,6 c 5.88427,0 11.93538,0.7175113 17.02155,2.0183357 4.34039,1.1100846 10.29335,3.4725843 13.2288,5.2500003 2.93545,1.777415 6.05095,4.019164 6.92333,4.981664 1.45342,1.603549 1.42673,1.926793 -0.31883,3.862564 -1.04775,1.161911 -4.9519,4.816593 -8.67589,8.121516 l -6.7709,6.008951 -3.7291,-2.565628 c -2.05101,-1.411095 -5.0791,-3.088377 -6.7291,-3.727292 -1.65,-0.638915 -5.925,-1.212696 -9.5,-1.27507 -3.575,-0.06237 -8.24632,0.489537 -10.38071,1.226466 -2.13439,0.73693 -5.65448,2.942366 -7.82241,4.900969 -2.16794,1.958603 -4.77336,5.191261 -5.78982,7.183683 -1.01646,1.992423 -2.35367,6.410619 -2.97159,9.818214 -0.8313,4.584391 -0.8313,7.806863 0,12.391254 0.61792,3.407595 1.9722,7.859244 3.00952,9.892554 1.03731,2.033309 3.76702,5.306986 6.06601,7.274838 2.29899,1.967851 5.72706,4.088491 7.61792,4.712533 1.89087,0.624042 6.74704,0.96752 10.79149,0.763284 6.23044,-0.314623 8.01098,-0.833398 11.65808,-3.396678 2.3675,-1.663938 5.31346,-4.806625 6.54657,-6.983749 C 668.95818,74.281284 669.9745,72.1625 669.98355,71.75 669.9926,71.3375 664.825,71 658.5,71 H 647 V 59.5 48 h 24.86071 24.86071 l 0.60143,5.078159 c 0.33079,2.792987 0.15055,8.67399 -0.40052,13.068894 -0.55107,4.394904 -1.892,10.369609 -2.97984,13.277123 -1.08785,2.907514 -3.36088,7.374314 -5.05119,9.926222 -1.69032,2.551908 -5.16985,6.488902 -7.7323,8.748874 -2.56245,2.259968 -6.85002,5.221868 -9.52793,6.581998 -2.67791,1.36012 -7.85291,3.10544 -11.5,3.87848 -3.64709,0.77304 -9.78107,1.37756 -13.63107,1.34339 -3.85,-0.0342 -9.74008,-0.65833 -13.08907,-1.38701 z m 283.55845,0.007 c -2.49184,-0.80066 -6.40411,-3.05939 -8.69392,-5.01939 l -4.16331,-3.563627 2.47919,-6.586599 c 1.36356,-3.622629 3.13754,-8.162237 3.94218,-10.088017 l 1.46298,-3.501419 4.00463,3.617941 C 918.96076,86.055901 920.89969,87 923.43145,87 c 1.88413,0 4.13284,-0.707143 4.99712,-1.571429 1.37405,-1.374048 1.57143,-6.398268 1.57143,-40 V 7 h 13 13 v 40.318499 c 0,32.809049 -0.27755,41.253116 -1.49018,45.336491 -0.9051,3.047802 -2.93896,6.509742 -5.18014,8.81741 -2.02947,2.08969 -5.74639,4.71458 -8.25981,5.83311 -2.90684,1.2936 -7.2992,2.15008 -12.06987,2.35355 -4.67691,0.19946 -9.20538,-0.2281 -12.03062,-1.13589 z m 574.53062,-0.009 c -3.3,-0.72954 -8.025,-2.21838 -10.5,-3.30852 -2.475,-1.09014 -6.4336,-3.40055 -8.7968,-5.13423 -2.3632,-1.73369 -4.5291,-3.757602 -4.8131,-4.497587 -0.284,-0.739984 1.6496,-5.22051 4.2968,-9.956722 2.6472,-4.736213 5.1496,-8.612693 5.5608,-8.614399 0.4112,-0.0017 3.0031,1.617257 5.7597,3.597695 2.7566,1.980438 7.1042,4.230438 9.6613,5 2.557,0.769562 7.6151,1.398504 11.2402,1.397649 4.2711,-0.001 7.8231,-0.616992 10.0911,-1.75 2.7245,-1.361058 3.5675,-2.442901 3.8047,-4.882812 0.2359,-2.425646 -0.3076,-3.616058 -2.4035,-5.264684 -1.4895,-1.171674 -6.5767,-3.270569 -11.3047,-4.66421 -4.7281,-1.393642 -11.2965,-3.453365 -14.5965,-4.577164 -3.3,-1.123799 -8.3359,-3.563847 -11.1908,-5.422328 -3.0962,-2.015519 -6.2234,-5.141149 -7.7499,-7.74579 -1.4075,-2.401703 -2.9688,-6.559927 -3.4696,-9.240498 -0.5622,-3.009294 -0.5402,-7.183847 0.057,-10.912363 0.5324,-3.321228 2.0639,-7.913317 3.4034,-10.204641 1.3395,-2.291325 4.3154,-5.775225 6.6131,-7.742001 2.2977,-1.966776 6.6884,-4.538255 9.7571,-5.7143974 3.8094,-1.4600944 8.7535,-2.2938144 15.5856,-2.6282437 7.2902,-0.3568482 11.713,-0.052595 16.2934,1.1208684 3.4579,0.8858689 8.6301,2.7640297 11.4937,4.1736917 2.8636,1.409661 6.7086,3.797107 8.5444,5.305435 l 3.3377,2.742414 -5.8377,9.191789 c -3.2108,5.055484 -6.2053,9.197346 -6.6545,9.204138 -0.4492,0.0068 -2.274,-1.099149 -4.0551,-2.457647 -1.7811,-1.358498 -5.4635,-3.466205 -8.1833,-4.683793 -3.4939,-1.56418 -6.9214,-2.220278 -11.6807,-2.235885 -5.269,-0.01728 -7.3376,0.427312 -9.5,2.041713 -1.8936,1.413831 -2.7642,2.964612 -2.7642,4.924067 0,2.285972 0.786,3.301169 3.9148,5.056187 2.1531,1.207758 8.1562,3.372581 13.3402,4.810718 5.1841,1.438137 11.7474,3.779956 14.5853,5.204042 2.8378,1.424086 6.9727,4.05968 9.1886,5.856875 2.2159,1.797196 5.3558,5.681528 6.9776,8.631851 2.5818,4.696819 2.9455,6.359562 2.9239,13.364222 -0.021,6.662548 -0.4659,8.850957 -2.6634,13.09002 -1.4512,2.799511 -4.3344,6.57901 -6.4071,8.398887 -2.0728,1.819873 -6.0721,4.363423 -8.8874,5.652333 -2.8154,1.2889 -7.5098,2.7969 -10.4322,3.35111 -2.9223,0.55421 -8.2894,0.97188 -11.9268,0.92815 -3.6374,-0.0437 -9.3135,-0.6764 -12.6135,-1.40594 z M 549,58 V 7 h 13 13 v 51 51 H 562 549 Z M 716,57.92743 V 6.8548646 l 26.75,0.3522787 c 24.95879,0.3286896 27.12814,0.503185 32.39709,2.6059147 3.10591,1.2395 7.61015,3.981584 10.00944,6.093521 2.39928,2.111936 5.37004,5.857623 6.60169,8.323748 1.23164,2.466125 2.70819,6.910671 3.28121,9.876768 0.57303,2.966098 0.76975,7.642905 0.43717,10.392905 -0.33258,2.75 -1.95479,7.813971 -3.60492,11.253268 -2.01965,4.20949 -4.40023,7.322254 -7.28378,9.524005 l -4.28355,3.270737 12.84782,19.724661 C 800.21848,99.121234 806,108.23465 806,108.52471 c 0,0.29006 -6.83715,0.40316 -15.19367,0.25134 L 775.61266,108.5 765.03203,91.5 754.4514,74.5 747.7257,74.20431 741,73.90862 V 91.45431 109 H 728.5 716 Z m 44.16998,-6.957917 c 2.01848,-0.560633 4.61219,-1.795623 5.76378,-2.744423 1.1516,-0.948801 2.46375,-3.075092 2.9159,-4.725092 0.45215,-1.65 0.42864,-4.47964 -0.0522,-6.288088 -0.55097,-2.072044 -2.06207,-4.012287 -4.08587,-5.246262 -2.63583,-1.607147 -5.04898,-1.958844 -13.46154,-1.961912 L 741,30 v 11 11 l 7.75,-0.0056 c 4.2625,-0.0031 9.40149,-0.464276 11.41998,-1.024908 z M 819,58 V 7 h 36 36 V 18.5 30 h -23 -23 v 8 8 h 21 21 v 11 11 h -21 -21 v 9 9 H 868.5 892 V 97.5 109 H 855.5 819 Z m 146.96036,50.97331 C 965.2575,108.96665 975.64753,84.225 987.31967,57 l 21.22203,-49.5 11.0618,-0.2811855 11.0617,-0.2811856 21.2689,49.7138531 c 11.6979,27.342619 21.0874,52.367698 21.8628,52.359058 1.0224,-0.0114 -2.3991,-0.0105 -13.5072,-0.0105 h -13.9244 l -3.8478,-9.521015 -3.8478,-9.521014 -19.0204,0.271014 -19.0203,0.271015 -3.6284,9 -3.62837,9 -13.68611,0.27822 c -10.60801,0.21565 -11.90625,0.21231 -13.72576,0.19509 z M 1028.7194,65.75 c -0.272,-0.6875 -2.1868,-5.525 -4.2551,-10.75 -2.0683,-5.225 -4.0314,-9.804242 -4.3624,-10.176094 -0.331,-0.371852 -2.6981,4.465648 -5.2602,10.75 L 1010.1835,67 h 9.5152 c 7.2093,0 9.3954,-0.302926 9.0207,-1.25 z M 1132,57.928451 V 6.8569019 l 27.25,0.3215491 c 25.9648,0.306384 27.4858,0.4300801 32.25,2.6227729 2.75,1.2656731 6.5019,3.7406731 8.3376,5.5000001 1.8357,1.759327 4.2657,4.998776 5.3999,7.198776 1.2242,2.374663 2.2591,6.744091 2.5469,10.753287 0.3463,4.824148 0.018,7.9664 -1.1477,11 -0.8979,2.335692 -2.6465,5.509881 -3.8859,7.053754 l -2.2535,2.807041 5.0223,5.192959 c 3.0506,3.154181 5.5049,6.808926 6.2514,9.308979 0.6759,2.26381 1.229,6.571148 1.229,9.571861 0,3.000713 -0.6994,7.508539 -1.5543,10.017391 -0.8548,2.508853 -3.1426,6.417186 -5.0839,8.685186 -1.9414,2.268 -5.4658,5.258272 -7.8322,6.645052 -2.3664,1.38679 -7.3911,3.1758 -11.166,3.97559 -4.909,1.04005 -13.7696,1.45912 -31.1136,1.47154 L 1132,109 Z m 50.02,26.561199 c 1.6064,-0.830693 3.3841,-2.37611 3.9504,-3.434259 0.5663,-1.058149 1.0296,-3.053398 1.0296,-4.433886 0,-1.380488 -1.085,-3.772571 -2.4111,-5.315741 -2.3586,-2.74461 -2.6746,-2.813038 -14.5,-3.139513 L 1158,67.832502 V 76.916251 86 h 10.5497 c 7.4537,0 11.4067,-0.443228 13.4703,-1.51035 z m -2.4745,-41.944195 C 1180.8955,41.195455 1182,38.925 1182,37.5 c 0,-1.425 -1.1045,-3.695455 -2.4545,-5.045455 C 1177.2823,30.191342 1176.3468,30 1167.5455,30 H 1158 v 7.5 7.5 h 9.5455 c 8.8013,0 9.7368,-0.191342 12,-2.454545 z m 40.2776,66.320515 c -0.6545,-0.0616 9.7319,-24.670282 21.4102,-52.0623 L 1262.4666,7 h 11.0446 11.0446 l 21.3734,50.25 c 11.7554,27.6375 21.401,51.73262 21.8695,51.7082 0.5781,-0.0301 -5.9566,0.0418 -13.6272,0.0418 h -13.9465 l -3.8625,-9.486031 -3.8625,-9.48603 -19.25,-0.01397 c -10.7517,-0.0078 -19.25,0.383372 -19.25,0.886068 0,0.49502 -1.62,4.77002 -3.6,9.500003 L 1246.8,109 h -13.4 c -9.7327,0 -12.3387,-0.0176 -13.5769,-0.13403 z M 1281.0899,62.25 c -1.0345,-2.6125 -3.1085,-7.806886 -4.609,-11.54308 -1.5004,-3.736194 -2.8476,-6.661194 -2.9937,-6.5 -0.146,0.161194 -1.9396,4.34308 -3.9857,9.29308 -2.0461,4.95 -4.1098,10.0125 -4.5861,11.25 -0.8604,2.2358 -0.8062,2.25 8.5948,2.25 h 9.4606 z M 1350,69.5 V 30 h -14 -14 V 18.5 7 h 41 41 V 18.5 30 h -14 -14 V 69.5 109 h -13 -13 z M 1421,58 V 7 h 12.5 12.5 v 51 51 h -12.5 -12.5 z m 164,11.5 V 30 H 1570.5 1556 V 18.5 7 h 41.5 41.5 V 18.5 30 H 1624.5 1610 V 69.5 109 h -12.5 -12.5 z m 47.9116,39.23913 c -0.4829,-0.0867 9.67,-23.9166 21.3809,-51.353627 L 1675.5849,7.5 l 11.107,-0.2818103 11.1069,-0.2818104 21.1736,49.6402657 c 11.6455,27.302146 21.0231,52.549005 21.8403,52.492475 1.3248,-0.0917 -2.0411,-0.0691 -13.5369,-0.0691 h -13.9382 l -3.7685,-9.521244 -3.7684,-9.521244 -19.0859,0.271244 -19.0858,0.271244 -3.6284,9 -3.6284,9 -13.6861,0.27822 c -7.5687,0.15386 -13.2439,0.0562 -13.7745,-0.0391 z M 1695.5792,65.25 c -0.3491,-0.9625 -2.3098,-5.906214 -4.357,-10.986031 -2.0472,-5.079817 -4.0102,-9.242317 -4.3622,-9.25 -0.352,-0.0077 -2.4915,4.598531 -4.7544,10.236031 -2.2629,5.6375 -4.1124,10.5875 -4.11,11 0,0.4125 4.1025,0.75 9.1114,0.75 8.2485,0 9.0471,-0.164971 8.4722,-1.75 z"
         id="path12" />
      <path
         style="fill:#feea88"
         d="m 2225.8311,0.25001605 c 90.3821,-0.14078715 237.9821,-0.1407831 328,9e-6 C 2643.849,0.39081716 2569.9,0.50600664 2389.5,0.50600169 2209.1,0.50599674 2135.449,0.3908032 2225.8311,0.25001605 Z"
         id="path10" />
      <path
         style="fill:#fed402;stroke-width:1.00184"
         d="m 2062,363.19601 c 0,-165.24625 -0.044,-293.059061 -0.031,-292.531996 0.013,0.495302 148.9322,110.917886 328.7972,245.999616 l 327.1517,245.54086 v 46.92883 l 0.031,46.92883 -328.052,-0.0623 H 2062 Z M 2389.8473,262.69376 2062.035,57.757973 2062.014,52.33149 c 0,0 -0.1765,-5.987212 0.1267,-5.987212 0.3032,0 148.1897,73.912392 328.2572,164.059382 l 327.4888,163.87247 0.031,46.67671 c 0.017,25.63792 0.1134,46.61441 -0.052,46.61441 -0.165,0 -147.9785,-92.21021 -328.0191,-204.87349 z M 2389.1459,156.92013 2062,33.970607 v -5.640178 -5.640178 l 324.1423,81.121229 c 178.2782,44.61668 325.8319,81.56897 327.8969,82.11621 l 3.7545,0.99498 v 46.57606 c 0,25.61683 0.3763,46.95935 -0.037,46.90294 -0.4129,-0.0564 -148.6807,-55.8593 -328.611,-123.48154 z m 0.2503,-105.470352 C 2210.1543,28.929878 2062.0134,11.035921 2062.004,10.62086 c -0.01,-0.415183 0,-2.6907336 0,-5.7231956 v -5.51356737 h 327.8969 328.021 l -0.031,46.70816097 c -0.024,36.681701 0.043,47.687671 0.021,46.916379 -0.02,-0.693042 -149.2693,-19.038959 -328.5112,-41.558859 z"
         id="path9" />
    </g>
  </g>
</svg>
